<?xml version="1.0" encoding="UTF-8"?>
<svg id="Logo" xmlns="http://www.w3.org/2000/svg" viewBox="0 0 169.32 31.91">
  <g id="Logo-2" data-name="Logo">
    <path id="mc-quadrat" d="M24.26,15.27v9.47h-3.07v-8.82c0-2.95-.87-4.2-2.92-4.2-2.63,0-4.61,2.11-4.61,4.91v8.11h-3.06v-8.82c0-2.95-.82-4.2-2.75-4.2-2.77,0-4.78,2.07-4.78,4.91v8.11H0v-15.6h3v2.43c.55-.68.9-1.01,1.46-1.42,1-.73,2.24-1.1,3.69-1.1,2.3,0,3.87.98,4.91,3.08.66-.84,1.01-1.19,1.61-1.68,1.22-.93,2.59-1.4,4.07-1.4,3.46,0,5.52,2.33,5.52,6.22ZM37.94,22.36c-.82.28-1.67.43-2.55.43-3.21,0-5.28-2.15-5.28-5.49,0-3.52,2.26-5.89,5.62-5.89,1.53,0,3.04.49,4.9,1.59l.33.19.38-2.84-.15-.08c-1.93-1.03-3.71-1.51-5.62-1.51-5.02,0-8.52,3.5-8.52,8.52s3.21,8.18,8.18,8.18c1.56,0,3.26-.35,4.65-.96.31-.12.71-.3,1.18-.55l.12-.06.42-3.56-.46.33c-1.41,1.01-2.03,1.35-3.18,1.72ZM44.08,18.42h8.94v-2.66h-8.94v2.66ZM68.03,9.17h2.77s0,21.85,0,21.85l-3.07.89v-7.25c-1.88.58-3.1.79-4.54.79-4.96,0-8.05-3.02-8.05-7.88,0-5.35,3.45-8.8,8.79-8.8,1.47,0,2.16.07,4.09.41ZM67.74,21.94v-9.8c-1.52-.51-2.44-.67-3.7-.67-3.65,0-5.83,2.16-5.83,5.79s2.1,5.66,5.76,5.66c1.43,0,2.47-.27,3.77-.98ZM86.5,16.96c0,3.32-2.42,5.83-5.62,5.83-2.28,0-3.12-1.2-3.12-4.44v-9.21h-3.07v9.21c0,4.98,1.71,7.1,5.72,7.1,1.36,0,2.54-.26,3.63-.81,1.09-.58,1.66-1.12,2.54-2.27v3.12l3-.49v-15.87h-3.07v7.82ZM108.63,24.27l.04.2-2.8,1.05-.36-1.68c-1.78,1.15-3.24,1.6-5.1,1.6-4.56,0-7.74-3.28-7.74-7.98,0-5.2,3.4-8.7,8.45-8.7,1.45,0,2.43.18,4.19.76l.42.12,2.59-.22v11.69c0,.96.1,2.05.3,3.16ZM102.71,22.62c.95-.32,1.47-.57,2.56-1.4v-8.89c-1.27-.72-2.5-1.04-3.97-1.04-3.38,0-5.56,2.41-5.56,6.14,0,3.33,1.94,5.49,4.95,5.49.69,0,1.37-.1,2.02-.29ZM124.03.73l3.07-.73v24.49l-2.86,1.06v-1.88c-1.89,1.25-3.5,1.77-5.45,1.77-4.39,0-7.34-3.08-7.34-7.68,0-5.39,3.52-9.01,8.75-9.01,1.38,0,2.61.22,3.83.69V.73h0ZM124.03,12.32c-1.11-.73-2.18-1.03-3.67-1.03-3.78,0-5.86,2.27-5.86,6.38,0,3.24,1.74,5.25,4.54,5.25.72,0,1.47-.12,2.22-.36.96-.34,1.52-.62,2.76-1.54v-8.7h0ZM137.02,9.15c-.63.24-1.1.5-1.48.81-.44.33-.74.63-1.19,1.22v-2.01h-3.07v15.57h3.07v-7.64c0-3.49,1.76-5.27,5.22-5.27h.76v-3.07h-.26c-1.49.04-2.23.13-3.05.39ZM156.79,24.27l.04.2-2.79,1.05-.36-1.68c-1.78,1.15-3.24,1.6-5.1,1.6-4.56,0-7.74-3.28-7.74-7.98,0-5.2,3.4-8.7,8.45-8.7,1.45,0,2.43.18,4.2.76l.42.12,2.59-.22v11.69c0,.96.1,2.05.3,3.16ZM150.87,22.62c.95-.32,1.47-.57,2.56-1.4v-8.89c-1.27-.72-2.5-1.04-3.97-1.04-3.37,0-5.55,2.41-5.55,6.14,0,3.33,1.94,5.49,4.95,5.49.69,0,1.37-.1,2.02-.29ZM169.32,11.69v-2.52h-4.32V3.93l-3.06.77v4.47h-3.04v2.52h3.04v8.91c0,2.16.65,3.48,2.18,4.4l.07.04,3.21-.34v-.73l-.15-.06c-1.78-.76-2.24-1.85-2.24-5.27v-6.95h4.32Z"/>
  </g>
</svg>